name Walk5.mot
datacolumns 19
datarows 30
range 3.04500000 3.19000000
endheader

                time	   L_ground_force_vx	   L_ground_force_vy	   L_ground_force_vz	   L_ground_force_px	   L_ground_force_py	   L_ground_force_pz	   R_ground_force_vx	   R_ground_force_vy	   R_ground_force_vz	   R_ground_force_px	   R_ground_force_py	   R_ground_force_pz	   L_ground_torque_x	   L_ground_torque_y	   L_ground_torque_z	   R_ground_torque_x	   R_ground_torque_y	   R_ground_torque_z	
          3.04500000	          0.02488439	          0.06311940	         -0.00375151	         -0.00033252	          0.00000000	         -0.00012434	        -27.25731488	        741.08072397	        -54.15197487	          0.21046162	          0.00000000	          0.09882084	          0.00000000	          0.00019621	          0.00000000	          0.00000000	          8.96619653	          0.00000000	
          3.05000000	          0.01486068	          0.03563174	         -0.00323125	         -0.00027291	          0.00000000	         -0.00010359	        -25.90793272	        735.37272130	        -53.63860919	          0.21246742	          0.00000000	          0.09912906	          0.00000000	          0.00016488	          0.00000000	          0.00000000	          8.74003827	          0.00000000	
          3.05500000	          0.00725737	          0.01518640	         -0.00264206	         -0.00021309	          0.00000000	         -0.00008209	        -24.58338596	        729.94788016	        -53.21243812	          0.21443732	          0.00000000	          0.09943728	          0.00000000	          0.00013175	          0.00000000	          0.00000000	          8.52553719	          0.00000000	
          3.06000000	          0.00180754	          0.00087414	         -0.00205527	         -0.00015788	          0.00000000	         -0.00006181	        -23.28158980	        724.88997151	        -52.84680342	          0.21636252	          0.00000000	          0.09974485	          0.00000000	          0.00010009	          0.00000000	          0.00000000	          8.32224119	          0.00000000	
          3.06500000	         -0.00183029	         -0.00837317	         -0.00151643	         -0.00010999	          0.00000000	         -0.00004391	        -21.99943498	        720.28499307	        -52.51788350	          0.21823653	          0.00000000	          0.10005149	          0.00000000	          0.00007187	          0.00000000	          0.00000000	          8.12956239	          0.00000000	
          3.07000000	         -0.00401840	         -0.01364108	         -0.00105095	         -0.00007058	          0.00000000	         -0.00002897	        -20.73372220	        716.21178126	        -52.20782386	          0.22005455	          0.00000000	          0.10035695	          0.00000000	          0.00004809	          0.00000000	          0.00000000	          7.94656939	          0.00000000	
          3.07500000	         -0.00510379	         -0.01594044	         -0.00066933	         -0.00003972	          0.00000000	         -0.00001709	        -19.48144355	        712.73514332	        -51.90702158	          0.22181267	          0.00000000	          0.10066075	          0.00000000	          0.00002903	          0.00000000	          0.00000000	          7.77209390	          0.00000000	
          3.08000000	         -0.00539618	         -0.01615428	         -0.00037166	         -0.00001679	          0.00000000	         -0.00000812	        -18.23895006	        709.90189285	        -51.61543601	          0.22350602	          0.00000000	          0.10096149	          0.00000000	          0.00001452	          0.00000000	          0.00000000	          7.60506942	          0.00000000	
          3.08500000	         -0.00515691	         -0.01501380	         -0.00015139	         -0.00000076	          0.00000000	         -0.00000173	        -17.00188307	        707.74173093	        -51.34141195	          0.22512883	          0.00000000	          0.10125839	          0.00000000	          0.00000406	          0.00000000	          0.00000000	          7.44437472	          0.00000000	
          3.09000000	         -0.00459562	         -0.01309502	          0.00000185	          0.00000958	          0.00000000	          0.00000251	        -15.76529770	        706.26890438	        -51.09893238	          0.22667660	          0.00000000	          0.10155226	          0.00000000	         -0.00000297	          0.00000000	          0.00000000	          7.28860764	          0.00000000	
          3.09500000	         -0.00387222	         -0.01082889	          0.00009997	          0.00001545	          0.00000000	          0.00000503	        -14.52365253	        705.48322486	        -50.90335823	          0.22814538	          0.00000000	          0.10184425	          0.00000000	         -0.00000724	          0.00000000	          0.00000000	          7.13618974	          0.00000000	
          3.10000000	         -0.00310207	         -0.00851923	          0.00015498	          0.00001800	          0.00000000	          0.00000624	        -13.27067262	        705.37357112	        -50.76837223	          0.22953196	          0.00000000	          0.10213594	          0.00000000	         -0.00000940	          0.00000000	          0.00000000	          6.98542477	          0.00000000	
          3.10500000	         -0.00236285	         -0.00636432	          0.00017801	          0.00001821	          0.00000000	          0.00000653	        -11.99941361	        705.92012399	        -50.70399203	          0.23083387	          0.00000000	          0.10243004	          0.00000000	         -0.00001005	          0.00000000	          0.00000000	          6.83429858	          0.00000000	
          3.11000000	         -0.00170193	         -0.00447908	          0.00017869	          0.00001690	          0.00000000	          0.00000620	        -10.70149400	        707.09694019	        -50.71572837	          0.23205034	          0.00000000	          0.10273074	          0.00000000	         -0.00000967	          0.00000000	          0.00000000	          6.68053358	          0.00000000	
          3.11500000	         -0.00114350	         -0.00291587	          0.00016500	          0.00001473	          0.00000000	          0.00000549	         -9.36622663	        708.87160810	        -50.80558996	          0.23318273	          0.00000000	          0.10304173	          0.00000000	         -0.00000866	          0.00000000	          0.00000000	          6.52173560	          0.00000000	
          3.12000000	         -0.00069495	         -0.00168280	          0.00014317	          0.00001217	          0.00000000	          0.00000461	         -7.98173739	        711.20799328	        -50.97291182	          0.23423389	          0.00000000	          0.10336468	          0.00000000	         -0.00000733	          0.00000000	          0.00000000	          6.35531820	          0.00000000	
          3.12500000	         -0.00035234	         -0.00075897	          0.00011785	          0.00000956	          0.00000000	          0.00000368	         -6.53773008	        714.06663845	        -51.21477268	          0.23520704	          0.00000000	          0.10369974	          0.00000000	         -0.00000589	          0.00000000	          0.00000000	          6.17894444	          0.00000000	
          3.13000000	         -0.00010476	         -0.00010651	          0.00009229	          0.00000714	          0.00000000	          0.00000279	         -5.02704221	        717.40268411	        -51.52695494	          0.23610599	          0.00000000	          0.10404635	          0.00000000	         -0.00000451	          0.00000000	          0.00000000	          5.99073316	          0.00000000	
          3.13500000	          0.00006229	          0.00032032	          0.00006860	          0.00000502	          0.00000000	          0.00000200	         -3.44704343	        721.16758248	        -51.90453466	          0.23693685	          0.00000000	          0.10440392	          0.00000000	         -0.00000326	          0.00000000	          0.00000000	          5.78928608	          0.00000000	
          3.14000000	          0.00016449	          0.00056871	          0.00004798	          0.00000326	          0.00000000	          0.00000133	         -1.79890680	        725.31053945	        -52.34219097	          0.23770717	          0.00000000	          0.10477063	          0.00000000	         -0.00000221	          0.00000000	          0.00000000	          5.57369422	          0.00000000	
          3.14500000	          0.00021702	          0.00068302	          0.00003097	          0.00000188	          0.00000000	          0.00000080	         -0.08613584	        729.78069905	        -52.83468968	          0.23842398	          0.00000000	          0.10514293	          0.00000000	         -0.00000136	          0.00000000	          0.00000000	          5.34329034	          0.00000000	
          3.15000000	          0.00023354	          0.00070230	          0.00001761	          0.00000084	          0.00000000	          0.00000040	          1.68667945	        734.53013301	        -53.37741696	          0.23909526	          0.00000000	          0.10551729	          0.00000000	         -0.00000070	          0.00000000	          0.00000000	          5.09783461	          0.00000000	
          3.15500000	          0.00022567	          0.00065913	          0.00000764	          0.00000011	          0.00000000	          0.00000011	          3.51602761	        739.51626776	        -53.96646831	          0.23973055	          0.00000000	          0.10589044	          0.00000000	         -0.00000023	          0.00000000	          0.00000000	          4.83770159	          0.00000000	
          3.16000000	          0.00020277	          0.00057931	          0.00000065	         -0.00000037	          0.00000000	         -0.00000009	          5.39987054	        744.70031362	        -54.59876918	          0.24033881	          0.00000000	          0.10625852	          0.00000000	          0.00000010	          0.00000000	          0.00000000	          4.56363903	          0.00000000	
          3.16500000	          0.00017205	          0.00048231	         -0.00000388	         -0.00000064	          0.00000000	         -0.00000021	          7.33641467	        750.04662011	        -55.27206748	          0.24092934	          0.00000000	          0.10661764	          0.00000000	          0.00000029	          0.00000000	          0.00000000	          4.27645704	          0.00000000	
          3.17000000	          0.00013874	          0.00038196	         -0.00000648	         -0.00000077	          0.00000000	         -0.00000027	          9.32382785	        755.52667493	        -55.98470525	          0.24151182	          0.00000000	          0.10696416	          0.00000000	          0.00000040	          0.00000000	          0.00000000	          3.97671567	          0.00000000	
          3.17500000	          0.00010641	          0.00028740	         -0.00000764	         -0.00000079	          0.00000000	         -0.00000028	         11.36002345	        761.12305098	        -56.73426696	          0.24209494	          0.00000000	          0.10729462	          0.00000000	          0.00000043	          0.00000000	          0.00000000	          3.66500920	          0.00000000	
          3.18000000	          0.00007726	          0.00020403	         -0.00000778	         -0.00000074	          0.00000000	         -0.00000027	         13.44296679	        766.83026365	        -57.51644786	          0.24268595	          0.00000000	          0.10760534	          0.00000000	          0.00000042	          0.00000000	          0.00000000	          3.34216437	          0.00000000	
          3.18500000	          0.00005246	          0.00013443	         -0.00000725	         -0.00000065	          0.00000000	         -0.00000024	         15.57031451	        772.65535142	        -58.32441543	          0.24328967	          0.00000000	          0.10789296	          0.00000000	          0.00000038	          0.00000000	          0.00000000	          3.00907204	          0.00000000	
          3.19000000	          0.00003240	          0.00007916	         -0.00000634	         -0.00000054	          0.00000000	         -0.00000020	         17.73914959	        778.61640374	        -59.14873230	          0.24390736	          0.00000000	          0.10815552	          0.00000000	          0.00000033	          0.00000000	          0.00000000	          2.66669603	          0.00000000	
